<?xml version="1.0" encoding="UTF-8" standalone="no"?>
<!-- Created with Inkscape (http://www.inkscape.org/) -->

<svg
   xmlns:dc="http://purl.org/dc/elements/1.1/"
   xmlns:cc="http://creativecommons.org/ns#"
   xmlns:rdf="http://www.w3.org/1999/02/22-rdf-syntax-ns#"
   xmlns:svg="http://www.w3.org/2000/svg"
   xmlns="http://www.w3.org/2000/svg"
   xmlns:sodipodi="http://sodipodi.sourceforge.net/DTD/sodipodi-0.dtd"
   xmlns:inkscape="http://www.inkscape.org/namespaces/inkscape"
   id="svg3856"
   height="22"
   width="15"
   version="1.1"
   inkscape:version="0.48.1 r9760"
   sodipodi:docname="mm-connected.svg">
  <defs
     id="defs14" />
  <sodipodi:namedview
     pagecolor="#ffffff"
     bordercolor="#666666"
     borderopacity="1"
     objecttolerance="10"
     gridtolerance="10"
     guidetolerance="10"
     inkscape:pageopacity="0"
     inkscape:pageshadow="2"
     inkscape:window-width="1440"
     inkscape:window-height="826"
     id="namedview12"
     showgrid="false"
     inkscape:zoom="13.363636"
     inkscape:cx="-3.7619051"
     inkscape:cy="17.828411"
     inkscape:window-x="0"
     inkscape:window-y="24"
     inkscape:window-maximized="1"
     inkscape:current-layer="layer1" />
  <metadata
     id="metadata3861">
    <rdf:RDF>
      <cc:Work
         rdf:about="">
        <dc:format>image/svg+xml</dc:format>
        <dc:type
           rdf:resource="http://purl.org/dc/dcmitype/StillImage" />
        <dc:title></dc:title>
      </cc:Work>
    </rdf:RDF>
  </metadata>
  <g
     id="layer1"
     transform="translate(0,6)">
    <path
       id="rect2406-4"
       style="opacity:0.29999999999999999;stroke:#000;stroke-linecap:round;fill:none;stroke-width:1.6;stroke-miterlimit:4;stroke-dasharray:none"
       d="m6.5-1.5h2c2.216 0 4 1.338 4 3v9c0 1.662-1.784 3-4 3h-2c-2.216 0-4-1.338-4-3v-9c0-1.662 1.784-3 4-3zm1.0419 0.000001v4" />
    <path
       id="rect2406"
       style="stroke:#dfdbd2;stroke-linecap:round;fill:none;stroke-width:1.5;stroke-miterlimit:19.89999924;stroke-dasharray:none;stroke-linejoin:miter"
       d="m6.5-2.5h2c2.216 0 4 1.338 4 3v9c0 1.662-1.784 3-4 3h-2c-2.216 0-4-1.338-4-3v-9c0-1.662 1.784-3 4-3zm1.0419 0.000001v4" />
  </g>
</svg>
